<mxfile host="app.diagrams.net" agent="Mozilla/5.0 (Macintosh; Intel Mac OS X 10_15_7) AppleWebKit/537.36 (KHTML, like Gecko) Chrome/127.0.0.0 Safari/537.36 Edg/127.0.0.0" version="24.7.12" pages="2">
  <diagram id="yPxyJZ8AM_hMuL3Unpa9" name="complex gitflow">
    <mxGraphModel dx="731" dy="592" grid="1" gridSize="10" guides="1" tooltips="1" connect="1" arrows="1" fold="1" page="1" pageScale="1" pageWidth="850" pageHeight="1100" math="0" shadow="0">
      <root>
        <mxCell id="0" />
        <mxCell id="1" parent="0" />
        <mxCell id="3" value="" style="endArrow=none;dashed=1;html=1;fillColor=#dae8fc;strokeColor=#6c8ebf;" parent="1" source="12" target="7" edge="1">
          <mxGeometry width="50" height="50" relative="1" as="geometry">
            <mxPoint x="220" y="170" as="sourcePoint" />
            <mxPoint x="900" y="170" as="targetPoint" />
          </mxGeometry>
        </mxCell>
        <mxCell id="22" style="edgeStyle=orthogonalEdgeStyle;rounded=1;orthogonalLoop=1;jettySize=auto;html=1;dashed=1;endArrow=none;endFill=0;fillColor=#d5e8d4;strokeColor=#82b366;" parent="1" source="4" target="21" edge="1">
          <mxGeometry relative="1" as="geometry">
            <Array as="points">
              <mxPoint x="220" y="280" />
            </Array>
          </mxGeometry>
        </mxCell>
        <mxCell id="4" value="origin/main" style="ellipse;whiteSpace=wrap;html=1;aspect=fixed;fillColor=#dae8fc;strokeColor=#4E668A;fontStyle=1;labelPosition=center;verticalLabelPosition=top;align=center;verticalAlign=bottom;fontColor=#4E668A;" parent="1" vertex="1">
          <mxGeometry x="210" y="160" width="20" height="20" as="geometry" />
        </mxCell>
        <mxCell id="7" value="Main" style="text;html=1;strokeColor=#4E668A;fillColor=#dae8fc;align=center;verticalAlign=middle;whiteSpace=wrap;rounded=0;fontColor=#1A1A1A;" parent="1" vertex="1">
          <mxGeometry x="1000" y="160" width="90" height="20" as="geometry" />
        </mxCell>
        <mxCell id="8" value="" style="endArrow=none;dashed=1;html=1;fillColor=#f8cecc;strokeColor=#b85450;entryX=0;entryY=0.5;entryDx=0;entryDy=0;endFill=0;exitX=1.054;exitY=0.562;exitDx=0;exitDy=0;exitPerimeter=0;" parent="1" source="9" edge="1">
          <mxGeometry width="50" height="50" relative="1" as="geometry">
            <mxPoint x="890" y="110" as="sourcePoint" />
            <mxPoint x="935" y="170" as="targetPoint" />
            <Array as="points">
              <mxPoint x="905" y="110" />
              <mxPoint x="905" y="170" />
            </Array>
          </mxGeometry>
        </mxCell>
        <mxCell id="93" style="edgeStyle=orthogonalEdgeStyle;rounded=1;orthogonalLoop=1;jettySize=auto;html=1;dashed=1;endArrow=none;endFill=0;fontSize=12;fontColor=#FFB570;fillColor=#d5e8d4;strokeColor=#82b366;entryX=0;entryY=0.5;entryDx=0;entryDy=0;exitX=0.5;exitY=1;exitDx=0;exitDy=0;" parent="1" source="12" edge="1">
          <mxGeometry relative="1" as="geometry">
            <Array as="points">
              <mxPoint x="930" y="280" />
            </Array>
            <mxPoint x="950" y="280" as="targetPoint" />
          </mxGeometry>
        </mxCell>
        <mxCell id="9" value="&lt;b style=&quot;&quot;&gt;&lt;font color=&quot;#944440&quot;&gt;origin/hotfix-x&lt;/font&gt;&lt;/b&gt;" style="ellipse;html=1;aspect=fixed;fillColor=#f8cecc;strokeColor=#944440;labelPosition=center;verticalLabelPosition=top;align=center;verticalAlign=bottom;" parent="1" vertex="1">
          <mxGeometry x="870" y="98" width="20" height="20" as="geometry" />
        </mxCell>
        <mxCell id="12" value="2024.10.31" style="ellipse;whiteSpace=wrap;html=1;aspect=fixed;fillColor=#dae8fc;strokeColor=#4E668A;fontStyle=1;labelPosition=center;verticalLabelPosition=top;align=center;verticalAlign=bottom;fontColor=#4E668A;" parent="1" vertex="1">
          <mxGeometry x="920" y="160" width="20" height="20" as="geometry" />
        </mxCell>
        <mxCell id="13" value="" style="endArrow=none;dashed=1;html=1;fillColor=#dae8fc;strokeColor=#6c8ebf;" parent="1" source="6" target="12" edge="1">
          <mxGeometry width="50" height="50" relative="1" as="geometry">
            <mxPoint x="230" y="170" as="sourcePoint" />
            <mxPoint x="880" y="170" as="targetPoint" />
          </mxGeometry>
        </mxCell>
        <mxCell id="19" style="edgeStyle=orthogonalEdgeStyle;rounded=1;orthogonalLoop=1;jettySize=auto;html=1;fillColor=#f8cecc;strokeColor=#b85450;dashed=1;endArrow=none;endFill=0;" parent="1" source="6" target="9" edge="1">
          <mxGeometry relative="1" as="geometry">
            <Array as="points">
              <mxPoint x="855" y="170" />
              <mxPoint x="855" y="110" />
            </Array>
          </mxGeometry>
        </mxCell>
        <mxCell id="20" value="Hotfix" style="text;html=1;strokeColor=#944440;fillColor=#f8cecc;align=center;verticalAlign=middle;whiteSpace=wrap;rounded=0;fontColor=#1A1A1A;" parent="1" vertex="1">
          <mxGeometry x="1000" y="98" width="90" height="20" as="geometry" />
        </mxCell>
        <mxCell id="73" style="edgeStyle=orthogonalEdgeStyle;rounded=1;orthogonalLoop=1;jettySize=auto;html=1;dashed=1;endArrow=none;endFill=0;fontSize=10;fontColor=#FFB570;fillColor=#e1d5e7;strokeColor=#9673a6;" parent="1" source="21" target="51" edge="1">
          <mxGeometry relative="1" as="geometry">
            <Array as="points">
              <mxPoint x="270" y="290" />
            </Array>
          </mxGeometry>
        </mxCell>
        <mxCell id="172" style="edgeStyle=orthogonalEdgeStyle;rounded=1;orthogonalLoop=1;jettySize=auto;html=1;dashed=1;endArrow=none;endFill=0;fontSize=12;fontColor=#FFB570;fillColor=#e1d5e7;strokeColor=#9673a6;" parent="1" source="21" target="63" edge="1">
          <mxGeometry relative="1" as="geometry">
            <Array as="points">
              <mxPoint x="270" y="390" />
            </Array>
          </mxGeometry>
        </mxCell>
        <mxCell id="21" value="&lt;b&gt;&lt;font color=&quot;#4d9900&quot;&gt;origin/dev&lt;/font&gt;&lt;/b&gt;" style="ellipse;whiteSpace=wrap;html=1;aspect=fixed;fillColor=#d5e8d4;strokeColor=#688F51;labelPosition=center;verticalLabelPosition=top;align=center;verticalAlign=bottom;" parent="1" vertex="1">
          <mxGeometry x="260" y="270" width="20" height="20" as="geometry" />
        </mxCell>
        <mxCell id="24" value="Development" style="text;html=1;strokeColor=#688F51;fillColor=#d5e8d4;align=center;verticalAlign=middle;whiteSpace=wrap;rounded=0;fontColor=#1A1A1A;" parent="1" vertex="1">
          <mxGeometry x="1000" y="270" width="90" height="20" as="geometry" />
        </mxCell>
        <mxCell id="26" style="edgeStyle=orthogonalEdgeStyle;rounded=1;orthogonalLoop=1;jettySize=auto;html=1;dashed=1;endArrow=none;endFill=0;fillColor=#d5e8d4;strokeColor=#82b366;entryX=0;entryY=0.5;entryDx=0;entryDy=0;" parent="1" source="21" target="27" edge="1">
          <mxGeometry relative="1" as="geometry">
            <mxPoint x="390" y="260" as="targetPoint" />
            <mxPoint x="290" y="280" as="sourcePoint" />
          </mxGeometry>
        </mxCell>
        <mxCell id="114" style="edgeStyle=orthogonalEdgeStyle;rounded=1;orthogonalLoop=1;jettySize=auto;html=1;dashed=1;endArrow=none;endFill=0;fontSize=12;fontColor=#FFB570;fillColor=#e1d5e7;strokeColor=#9673a6;entryX=0;entryY=0.5;entryDx=0;entryDy=0;" parent="1" source="27" target="65" edge="1">
          <mxGeometry relative="1" as="geometry">
            <Array as="points">
              <mxPoint x="460" y="390" />
            </Array>
          </mxGeometry>
        </mxCell>
        <mxCell id="27" value="" style="ellipse;whiteSpace=wrap;html=1;aspect=fixed;fillColor=#d5e8d4;strokeColor=#688F51;" parent="1" vertex="1">
          <mxGeometry x="449.97" y="270" width="20" height="20" as="geometry" />
        </mxCell>
        <mxCell id="44" style="edgeStyle=orthogonalEdgeStyle;rounded=1;orthogonalLoop=1;jettySize=auto;html=1;dashed=1;endArrow=none;endFill=0;fontSize=10;fontColor=#FFB570;fillColor=#ffe6cc;strokeColor=#d79b00;" parent="1" source="29" target="39" edge="1">
          <mxGeometry relative="1" as="geometry">
            <Array as="points">
              <mxPoint x="580" y="230" />
            </Array>
          </mxGeometry>
        </mxCell>
        <mxCell id="29" value="" style="ellipse;whiteSpace=wrap;html=1;aspect=fixed;fillColor=#d5e8d4;strokeColor=#688F51;" parent="1" vertex="1">
          <mxGeometry x="569.97" y="270" width="20" height="20" as="geometry" />
        </mxCell>
        <mxCell id="30" style="edgeStyle=orthogonalEdgeStyle;rounded=1;orthogonalLoop=1;jettySize=auto;html=1;dashed=1;endArrow=none;endFill=0;fillColor=#d5e8d4;strokeColor=#82b366;" parent="1" source="27" target="29" edge="1">
          <mxGeometry relative="1" as="geometry">
            <mxPoint x="860" y="280" as="targetPoint" />
            <mxPoint x="550" y="280" as="sourcePoint" />
          </mxGeometry>
        </mxCell>
        <mxCell id="177" style="edgeStyle=orthogonalEdgeStyle;rounded=1;orthogonalLoop=1;jettySize=auto;html=1;entryX=0;entryY=0.5;entryDx=0;entryDy=0;dashed=1;fillColor=#d5e8d4;strokeColor=#82b366;endArrow=none;endFill=0;" parent="1" source="6" target="92" edge="1">
          <mxGeometry relative="1" as="geometry">
            <Array as="points">
              <mxPoint x="830" y="280" />
            </Array>
          </mxGeometry>
        </mxCell>
        <mxCell id="6" value="2024.09.30" style="ellipse;whiteSpace=wrap;html=1;aspect=fixed;fillColor=#dae8fc;strokeColor=#4E668A;fontStyle=1;labelPosition=center;verticalLabelPosition=top;align=center;verticalAlign=bottom;fontColor=#4E668A;" parent="1" vertex="1">
          <mxGeometry x="820" y="160" width="20" height="20" as="geometry" />
        </mxCell>
        <mxCell id="35" value="" style="endArrow=none;dashed=1;html=1;fillColor=#dae8fc;strokeColor=#6c8ebf;" parent="1" source="4" target="6" edge="1">
          <mxGeometry width="50" height="50" relative="1" as="geometry">
            <mxPoint x="229.9999999999917" y="170" as="sourcePoint" />
            <mxPoint x="870" y="170" as="targetPoint" />
            <Array as="points" />
          </mxGeometry>
        </mxCell>
        <mxCell id="43" style="edgeStyle=orthogonalEdgeStyle;rounded=1;orthogonalLoop=1;jettySize=auto;html=1;dashed=1;endArrow=none;endFill=0;fontSize=10;fontColor=#FFB570;fillColor=#ffe6cc;strokeColor=#d79b00;" parent="1" source="36" target="6" edge="1">
          <mxGeometry relative="1" as="geometry">
            <Array as="points">
              <mxPoint x="810" y="230" />
              <mxPoint x="810" y="170" />
            </Array>
          </mxGeometry>
        </mxCell>
        <mxCell id="162" style="edgeStyle=orthogonalEdgeStyle;rounded=1;orthogonalLoop=1;jettySize=auto;html=1;dashed=1;endArrow=none;endFill=0;fontSize=12;fontColor=#FFB570;entryX=0;entryY=0.5;entryDx=0;entryDy=0;fillColor=#ffe6cc;strokeColor=#d79b00;" parent="1" source="36" target="159" edge="1">
          <mxGeometry relative="1" as="geometry">
            <Array as="points">
              <mxPoint x="710" y="250" />
            </Array>
          </mxGeometry>
        </mxCell>
        <mxCell id="36" value="" style="ellipse;whiteSpace=wrap;html=1;aspect=fixed;fontSize=10;labelPosition=center;verticalLabelPosition=top;align=center;verticalAlign=bottom;fillColor=#ffe6cc;strokeColor=#AB7B00;fontColor=#AB7B00;" parent="1" vertex="1">
          <mxGeometry x="700" y="220" width="20" height="20" as="geometry" />
        </mxCell>
        <mxCell id="41" style="edgeStyle=orthogonalEdgeStyle;rounded=1;orthogonalLoop=1;jettySize=auto;html=1;dashed=1;endArrow=none;endFill=0;fontSize=10;fontColor=#FFB570;fillColor=#ffe6cc;strokeColor=#d79b00;" parent="1" source="39" target="36" edge="1">
          <mxGeometry relative="1" as="geometry" />
        </mxCell>
        <mxCell id="39" value="&lt;b&gt;&lt;font style=&quot;font-size: 12px;&quot;&gt;merge/feature-x with dev&lt;/font&gt;&lt;/b&gt;" style="ellipse;html=1;aspect=fixed;fontSize=10;labelPosition=center;verticalLabelPosition=top;align=center;verticalAlign=bottom;fillColor=#ffe6cc;strokeColor=#d79b00;fontColor=#AB7B00;" parent="1" vertex="1">
          <mxGeometry x="594.66" y="220" width="20" height="20" as="geometry" />
        </mxCell>
        <mxCell id="42" value="Feature Merge" style="text;html=1;strokeColor=#AB7B00;fillColor=#ffe6cc;align=center;verticalAlign=middle;whiteSpace=wrap;rounded=0;fontSize=12;fontColor=#1A1A1A;" parent="1" vertex="1">
          <mxGeometry x="1000" y="220" width="90" height="20" as="geometry" />
        </mxCell>
        <mxCell id="74" style="edgeStyle=orthogonalEdgeStyle;rounded=1;orthogonalLoop=1;jettySize=auto;html=1;dashed=1;endArrow=none;endFill=0;fontSize=10;fontColor=#FFB570;fillColor=#e1d5e7;strokeColor=#9673a6;" parent="1" source="51" target="52" edge="1">
          <mxGeometry relative="1" as="geometry" />
        </mxCell>
        <mxCell id="76" style="edgeStyle=orthogonalEdgeStyle;rounded=1;orthogonalLoop=1;jettySize=auto;html=1;dashed=1;endArrow=none;endFill=0;fontSize=10;fontColor=#FFB570;fillColor=#e1d5e7;strokeColor=#9673a6;entryX=0;entryY=0.5;entryDx=0;entryDy=0;" parent="1" source="52" target="27" edge="1">
          <mxGeometry relative="1" as="geometry">
            <Array as="points">
              <mxPoint x="430" y="310" />
              <mxPoint x="430" y="280" />
            </Array>
          </mxGeometry>
        </mxCell>
        <mxCell id="52" value="" style="ellipse;whiteSpace=wrap;html=1;aspect=fixed;fontSize=10;fillColor=#e1d5e7;strokeColor=#654E70;" parent="1" vertex="1">
          <mxGeometry x="389.97" y="300" width="20" height="20" as="geometry" />
        </mxCell>
        <mxCell id="63" value="&lt;b&gt;&lt;font color=&quot;#654e70&quot; style=&quot;font-size: 12px;&quot;&gt;origin/feature/feature-1&lt;/font&gt;&lt;/b&gt;" style="ellipse;html=1;aspect=fixed;fontSize=10;fillColor=#e1d5e7;strokeColor=#654E70;labelPosition=center;verticalLabelPosition=bottom;align=center;verticalAlign=top;spacingRight=0;" parent="1" vertex="1">
          <mxGeometry x="299.97" y="380" width="20" height="20" as="geometry" />
        </mxCell>
        <mxCell id="99" style="edgeStyle=orthogonalEdgeStyle;rounded=1;orthogonalLoop=1;jettySize=auto;html=1;dashed=1;endArrow=none;endFill=0;fontSize=12;fontColor=#FFB570;fillColor=#e1d5e7;strokeColor=#9673a6;" parent="1" source="65" target="71" edge="1">
          <mxGeometry relative="1" as="geometry" />
        </mxCell>
        <mxCell id="65" value="" style="ellipse;whiteSpace=wrap;html=1;aspect=fixed;fontSize=10;fillColor=#e1d5e7;strokeColor=#654E70;" parent="1" vertex="1">
          <mxGeometry x="480" y="380" width="20" height="20" as="geometry" />
        </mxCell>
        <mxCell id="100" style="edgeStyle=orthogonalEdgeStyle;rounded=1;orthogonalLoop=1;jettySize=auto;html=1;dashed=1;endArrow=none;endFill=0;fontSize=12;fontColor=#FFB570;fillColor=#e1d5e7;strokeColor=#9673a6;entryX=0;entryY=0.5;entryDx=0;entryDy=0;" parent="1" source="71" target="29" edge="1">
          <mxGeometry relative="1" as="geometry">
            <mxPoint x="580" y="290" as="targetPoint" />
            <Array as="points">
              <mxPoint x="560" y="390" />
              <mxPoint x="560" y="280" />
            </Array>
          </mxGeometry>
        </mxCell>
        <mxCell id="71" value="" style="ellipse;whiteSpace=wrap;html=1;aspect=fixed;fontSize=10;fillColor=#e1d5e7;strokeColor=#654E70;" parent="1" vertex="1">
          <mxGeometry x="530" y="380" width="20" height="20" as="geometry" />
        </mxCell>
        <mxCell id="82" style="edgeStyle=orthogonalEdgeStyle;rounded=1;orthogonalLoop=1;jettySize=auto;html=1;dashed=1;endArrow=none;endFill=0;fillColor=#d5e8d4;strokeColor=#82b366;" parent="1" source="29" target="92" edge="1">
          <mxGeometry relative="1" as="geometry">
            <mxPoint x="680" y="260" as="targetPoint" />
            <mxPoint x="640" y="260" as="sourcePoint" />
          </mxGeometry>
        </mxCell>
        <mxCell id="85" value="Feature 2" style="text;html=1;strokeColor=#654E70;fillColor=#e1d5e7;align=center;verticalAlign=middle;whiteSpace=wrap;rounded=0;fontColor=#1A1A1A;" parent="1" vertex="1">
          <mxGeometry x="1000" y="300" width="90" height="20" as="geometry" />
        </mxCell>
        <mxCell id="86" value="Feature 1" style="text;html=1;strokeColor=#654E70;fillColor=#e1d5e7;align=center;verticalAlign=middle;whiteSpace=wrap;rounded=0;fontColor=#1A1A1A;" parent="1" vertex="1">
          <mxGeometry x="1000" y="330" width="90" height="20" as="geometry" />
        </mxCell>
        <mxCell id="164" style="edgeStyle=orthogonalEdgeStyle;rounded=1;orthogonalLoop=1;jettySize=auto;html=1;dashed=1;endArrow=none;endFill=0;fontSize=12;fontColor=#FFB570;fillColor=#ffe6cc;strokeColor=#d79b00;" parent="1" source="95" target="103" edge="1">
          <mxGeometry relative="1" as="geometry" />
        </mxCell>
        <mxCell id="95" value="" style="ellipse;whiteSpace=wrap;html=1;aspect=fixed;fontSize=10;fillColor=#ffe6cc;strokeColor=#AB7B00;" parent="1" vertex="1">
          <mxGeometry x="614.6600000000001" y="240" width="20" height="20" as="geometry" />
        </mxCell>
        <mxCell id="108" style="edgeStyle=orthogonalEdgeStyle;rounded=1;orthogonalLoop=1;jettySize=auto;html=1;dashed=1;endArrow=none;endFill=0;fontSize=12;fontColor=#FFB570;fillColor=#ffe6cc;strokeColor=#d79b00;entryX=0;entryY=0.5;entryDx=0;entryDy=0;" parent="1" source="103" target="36" edge="1">
          <mxGeometry relative="1" as="geometry">
            <mxPoint x="670" y="200" as="targetPoint" />
            <Array as="points">
              <mxPoint x="690" y="250" />
              <mxPoint x="690" y="230" />
            </Array>
          </mxGeometry>
        </mxCell>
        <mxCell id="103" value="" style="ellipse;whiteSpace=wrap;html=1;aspect=fixed;fontSize=10;fillColor=#ffe6cc;strokeColor=#AB7B00;" parent="1" vertex="1">
          <mxGeometry x="670" y="240" width="20" height="20" as="geometry" />
        </mxCell>
        <mxCell id="107" style="edgeStyle=orthogonalEdgeStyle;rounded=1;orthogonalLoop=1;jettySize=auto;html=1;dashed=1;endArrow=none;endFill=0;fontSize=12;fontColor=#FFB570;fillColor=#ffe6cc;strokeColor=#d79b00;" parent="1" source="39" target="95" edge="1">
          <mxGeometry relative="1" as="geometry">
            <mxPoint x="670" y="230" as="sourcePoint" />
            <mxPoint x="730" y="350" as="targetPoint" />
            <Array as="points">
              <mxPoint x="605" y="250" />
            </Array>
          </mxGeometry>
        </mxCell>
        <mxCell id="166" style="edgeStyle=orthogonalEdgeStyle;rounded=1;orthogonalLoop=1;jettySize=auto;html=1;dashed=1;endArrow=none;endFill=0;fontSize=12;fontColor=#FFB570;fillColor=#e1d5e7;strokeColor=#9673a6;" parent="1" source="92" target="165" edge="1">
          <mxGeometry relative="1" as="geometry">
            <Array as="points">
              <mxPoint x="855" y="310" />
            </Array>
          </mxGeometry>
        </mxCell>
        <mxCell id="169" style="edgeStyle=orthogonalEdgeStyle;rounded=1;orthogonalLoop=1;jettySize=auto;html=1;dashed=1;endArrow=none;endFill=0;fontSize=12;fontColor=#FFB570;fillColor=#e1d5e7;strokeColor=#9673a6;" parent="1" source="92" target="168" edge="1">
          <mxGeometry relative="1" as="geometry">
            <Array as="points">
              <mxPoint x="855" y="340" />
            </Array>
          </mxGeometry>
        </mxCell>
        <mxCell id="92" value="" style="ellipse;whiteSpace=wrap;html=1;aspect=fixed;fontSize=10;fillColor=#d5e8d4;strokeColor=#688F51;" parent="1" vertex="1">
          <mxGeometry x="844.97" y="270" width="20" height="20" as="geometry" />
        </mxCell>
        <mxCell id="116" style="edgeStyle=orthogonalEdgeStyle;rounded=1;orthogonalLoop=1;jettySize=auto;html=1;dashed=1;endArrow=none;endFill=0;fontSize=12;fontColor=#FFB570;fillColor=#e1d5e7;strokeColor=#9673a6;" parent="1" source="63" target="65" edge="1">
          <mxGeometry relative="1" as="geometry">
            <mxPoint x="329.97" y="410" as="sourcePoint" />
            <mxPoint x="379.97" y="410" as="targetPoint" />
          </mxGeometry>
        </mxCell>
        <mxCell id="125" value="Feature Fixes" style="text;html=1;strokeColor=#AB7B00;fillColor=#ffe6cc;align=center;verticalAlign=middle;whiteSpace=wrap;rounded=0;fontSize=12;fontColor=#1A1A1A;" parent="1" vertex="1">
          <mxGeometry x="1000" y="240" width="90" height="20" as="geometry" />
        </mxCell>
        <mxCell id="146" style="edgeStyle=orthogonalEdgeStyle;rounded=1;orthogonalLoop=1;jettySize=auto;html=1;dashed=1;endArrow=none;endFill=0;fillColor=#d5e8d4;strokeColor=#82b366;entryX=0;entryY=0.5;entryDx=0;entryDy=0;" parent="1" source="92" target="24" edge="1">
          <mxGeometry relative="1" as="geometry">
            <mxPoint x="960" y="270" as="targetPoint" />
            <mxPoint x="850" y="260" as="sourcePoint" />
            <Array as="points" />
          </mxGeometry>
        </mxCell>
        <mxCell id="163" style="edgeStyle=orthogonalEdgeStyle;rounded=1;orthogonalLoop=1;jettySize=auto;html=1;entryX=0;entryY=0.5;entryDx=0;entryDy=0;dashed=1;endArrow=none;endFill=0;fontSize=12;fontColor=#FFB570;fillColor=#ffe6cc;strokeColor=#d79b00;" parent="1" source="159" target="160" edge="1">
          <mxGeometry relative="1" as="geometry" />
        </mxCell>
        <mxCell id="159" value="" style="ellipse;whiteSpace=wrap;html=1;aspect=fixed;fontSize=10;fillColor=#ffe6cc;strokeColor=#AB7B00;" parent="1" vertex="1">
          <mxGeometry x="730" y="240" width="20" height="20" as="geometry" />
        </mxCell>
        <mxCell id="160" value="" style="ellipse;whiteSpace=wrap;html=1;aspect=fixed;fontSize=10;fillColor=#ffe6cc;strokeColor=#AB7B00;labelPosition=center;verticalLabelPosition=top;align=center;verticalAlign=bottom;fontColor=#AB7B00;" parent="1" vertex="1">
          <mxGeometry x="780" y="220" width="20" height="20" as="geometry" />
        </mxCell>
        <mxCell id="167" style="edgeStyle=orthogonalEdgeStyle;rounded=1;orthogonalLoop=1;jettySize=auto;html=1;dashed=1;endArrow=none;endFill=0;fontSize=12;fontColor=#FFB570;fillColor=#e1d5e7;strokeColor=#9673a6;" parent="1" source="165" target="85" edge="1">
          <mxGeometry relative="1" as="geometry" />
        </mxCell>
        <mxCell id="165" value="" style="ellipse;whiteSpace=wrap;html=1;aspect=fixed;fontSize=12;fillColor=#e1d5e7;strokeColor=#654E70;" parent="1" vertex="1">
          <mxGeometry x="875" y="300" width="20" height="20" as="geometry" />
        </mxCell>
        <mxCell id="170" style="edgeStyle=orthogonalEdgeStyle;rounded=1;orthogonalLoop=1;jettySize=auto;html=1;dashed=1;endArrow=none;endFill=0;fontSize=12;fontColor=#FFB570;fillColor=#e1d5e7;strokeColor=#9673a6;" parent="1" source="168" target="86" edge="1">
          <mxGeometry relative="1" as="geometry" />
        </mxCell>
        <mxCell id="168" value="" style="ellipse;whiteSpace=wrap;html=1;aspect=fixed;fontSize=12;fillColor=#e1d5e7;strokeColor=#654E70;" parent="1" vertex="1">
          <mxGeometry x="875" y="330" width="20" height="20" as="geometry" />
        </mxCell>
        <mxCell id="51" value="&lt;b&gt;&lt;font color=&quot;#755f7f&quot; style=&quot;font-size: 12px;&quot;&gt;origin/feature/feature-2&lt;/font&gt;&lt;/b&gt;" style="ellipse;html=1;aspect=fixed;fontSize=10;fillColor=#e1d5e7;strokeColor=#654E70;labelPosition=center;verticalLabelPosition=bottom;align=center;verticalAlign=top;" parent="1" vertex="1">
          <mxGeometry x="299.97" y="300" width="20" height="20" as="geometry" />
        </mxCell>
      </root>
    </mxGraphModel>
  </diagram>
  <diagram id="eWztX-HKV9PbQhigdnBN" name="simple gitflow">
    <mxGraphModel dx="1084" dy="813" grid="1" gridSize="10" guides="1" tooltips="1" connect="1" arrows="1" fold="1" page="1" pageScale="1" pageWidth="850" pageHeight="1100" math="0" shadow="0">
      <root>
        <mxCell id="QUeHIoVe-N7WYJK59KCd-0" />
        <mxCell id="QUeHIoVe-N7WYJK59KCd-1" parent="QUeHIoVe-N7WYJK59KCd-0" />
        <mxCell id="QUeHIoVe-N7WYJK59KCd-26" value="" style="edgeStyle=orthogonalEdgeStyle;orthogonalLoop=1;jettySize=auto;html=1;dashed=1;startFill=0;endArrow=none;endFill=0;strokeColor=#6c8ebf;fillColor=#dae8fc;" parent="QUeHIoVe-N7WYJK59KCd-1" source="QUeHIoVe-N7WYJK59KCd-14" target="QUeHIoVe-N7WYJK59KCd-25" edge="1">
          <mxGeometry relative="1" as="geometry" />
        </mxCell>
        <mxCell id="QUeHIoVe-N7WYJK59KCd-40" style="edgeStyle=orthogonalEdgeStyle;orthogonalLoop=1;jettySize=auto;html=1;entryX=0;entryY=0.5;entryDx=0;entryDy=0;dashed=1;startFill=0;endArrow=none;endFill=0;strokeColor=#6c8ebf;fillColor=#dae8fc;" parent="QUeHIoVe-N7WYJK59KCd-1" source="QUeHIoVe-N7WYJK59KCd-14" target="QUeHIoVe-N7WYJK59KCd-32" edge="1">
          <mxGeometry relative="1" as="geometry">
            <Array as="points">
              <mxPoint x="55" y="95" />
            </Array>
          </mxGeometry>
        </mxCell>
        <mxCell id="QUeHIoVe-N7WYJK59KCd-14" value="V1.0" style="ellipse;whiteSpace=wrap;html=1;aspect=fixed;fillColor=#dae8fc;strokeColor=#6c8ebf;labelPosition=center;verticalLabelPosition=top;align=center;verticalAlign=bottom;" parent="QUeHIoVe-N7WYJK59KCd-1" vertex="1">
          <mxGeometry x="40" y="40" width="30" height="30" as="geometry" />
        </mxCell>
        <mxCell id="QUeHIoVe-N7WYJK59KCd-28" value="" style="edgeStyle=orthogonalEdgeStyle;orthogonalLoop=1;jettySize=auto;html=1;dashed=1;startFill=0;endArrow=none;endFill=0;strokeColor=#6c8ebf;fillColor=#dae8fc;" parent="QUeHIoVe-N7WYJK59KCd-1" source="QUeHIoVe-N7WYJK59KCd-25" target="QUeHIoVe-N7WYJK59KCd-27" edge="1">
          <mxGeometry relative="1" as="geometry" />
        </mxCell>
        <mxCell id="QUeHIoVe-N7WYJK59KCd-25" value="V2.0" style="ellipse;whiteSpace=wrap;html=1;aspect=fixed;fillColor=#dae8fc;strokeColor=#6c8ebf;labelPosition=center;verticalLabelPosition=top;align=center;verticalAlign=bottom;" parent="QUeHIoVe-N7WYJK59KCd-1" vertex="1">
          <mxGeometry x="410" y="40" width="30" height="30" as="geometry" />
        </mxCell>
        <mxCell id="QUeHIoVe-N7WYJK59KCd-30" value="" style="edgeStyle=orthogonalEdgeStyle;orthogonalLoop=1;jettySize=auto;html=1;dashed=1;startFill=0;endArrow=none;endFill=0;strokeColor=#6c8ebf;fillColor=#dae8fc;" parent="QUeHIoVe-N7WYJK59KCd-1" source="QUeHIoVe-N7WYJK59KCd-27" target="QUeHIoVe-N7WYJK59KCd-29" edge="1">
          <mxGeometry relative="1" as="geometry" />
        </mxCell>
        <mxCell id="QUeHIoVe-N7WYJK59KCd-27" value="V2.1" style="ellipse;whiteSpace=wrap;html=1;aspect=fixed;fillColor=#dae8fc;strokeColor=#6c8ebf;labelPosition=center;verticalLabelPosition=top;align=center;verticalAlign=bottom;" parent="QUeHIoVe-N7WYJK59KCd-1" vertex="1">
          <mxGeometry x="510" y="40" width="30" height="30" as="geometry" />
        </mxCell>
        <mxCell id="QUeHIoVe-N7WYJK59KCd-29" value="Master" style="rounded=0;whiteSpace=wrap;html=1;fontFamily=Helvetica;fontSize=12;fontColor=#000000;align=center;strokeColor=#6c8ebf;fillColor=#dae8fc;" parent="QUeHIoVe-N7WYJK59KCd-1" vertex="1">
          <mxGeometry x="610" y="40" width="110" height="30" as="geometry" />
        </mxCell>
        <mxCell id="QUeHIoVe-N7WYJK59KCd-34" value="" style="edgeStyle=orthogonalEdgeStyle;orthogonalLoop=1;jettySize=auto;html=1;dashed=1;startFill=0;endArrow=none;endFill=0;strokeColor=#9673a6;fillColor=#e1d5e7;" parent="QUeHIoVe-N7WYJK59KCd-1" source="QUeHIoVe-N7WYJK59KCd-32" target="QUeHIoVe-N7WYJK59KCd-33" edge="1">
          <mxGeometry relative="1" as="geometry" />
        </mxCell>
        <mxCell id="QUeHIoVe-N7WYJK59KCd-32" value="" style="ellipse;whiteSpace=wrap;html=1;aspect=fixed;fillColor=#e1d5e7;strokeColor=#9673a6;labelPosition=center;verticalLabelPosition=top;align=center;verticalAlign=bottom;" parent="QUeHIoVe-N7WYJK59KCd-1" vertex="1">
          <mxGeometry x="90" y="80" width="30" height="30" as="geometry" />
        </mxCell>
        <mxCell id="QUeHIoVe-N7WYJK59KCd-36" value="" style="edgeStyle=orthogonalEdgeStyle;orthogonalLoop=1;jettySize=auto;html=1;dashed=1;startFill=0;endArrow=none;endFill=0;strokeColor=#6c8ebf;fillColor=#dae8fc;" parent="QUeHIoVe-N7WYJK59KCd-1" source="QUeHIoVe-N7WYJK59KCd-33" target="QUeHIoVe-N7WYJK59KCd-35" edge="1">
          <mxGeometry relative="1" as="geometry" />
        </mxCell>
        <mxCell id="QUeHIoVe-N7WYJK59KCd-33" value="" style="ellipse;whiteSpace=wrap;html=1;aspect=fixed;fillColor=#e1d5e7;strokeColor=#9673a6;labelPosition=center;verticalLabelPosition=top;align=center;verticalAlign=bottom;" parent="QUeHIoVe-N7WYJK59KCd-1" vertex="1">
          <mxGeometry x="250" y="80" width="30" height="30" as="geometry" />
        </mxCell>
        <mxCell id="QUeHIoVe-N7WYJK59KCd-41" style="edgeStyle=orthogonalEdgeStyle;orthogonalLoop=1;jettySize=auto;html=1;exitX=1;exitY=0.5;exitDx=0;exitDy=0;entryX=0;entryY=0.5;entryDx=0;entryDy=0;dashed=1;startFill=0;endArrow=none;endFill=0;strokeColor=#6c8ebf;fillColor=#dae8fc;" parent="QUeHIoVe-N7WYJK59KCd-1" source="QUeHIoVe-N7WYJK59KCd-35" target="QUeHIoVe-N7WYJK59KCd-25" edge="1">
          <mxGeometry relative="1" as="geometry" />
        </mxCell>
        <mxCell id="QUeHIoVe-N7WYJK59KCd-35" value="" style="ellipse;whiteSpace=wrap;html=1;aspect=fixed;fillColor=#e1d5e7;strokeColor=#9673a6;labelPosition=center;verticalLabelPosition=top;align=center;verticalAlign=bottom;" parent="QUeHIoVe-N7WYJK59KCd-1" vertex="1">
          <mxGeometry x="340" y="80" width="30" height="30" as="geometry" />
        </mxCell>
      </root>
    </mxGraphModel>
  </diagram>
</mxfile>
